<svg width="1728" height="1055" viewBox="0 0 1728 1055" fill="none" xmlns="http://www.w3.org/2000/svg">
<line y1="31.5" x2="1728" y2="31.5" stroke="#AAAAAA" stroke-opacity="0.16"/>
<line y1="63.5" x2="1728" y2="63.5" stroke="#AAAAAA" stroke-opacity="0.16"/>
<line y1="95.5" x2="1728" y2="95.5" stroke="#AAAAAA" stroke-opacity="0.16"/>
<line y1="127.5" x2="1728" y2="127.5" stroke="#AAAAAA" stroke-opacity="0.16"/>
<line y1="159.5" x2="1728" y2="159.5" stroke="#AAAAAA" stroke-opacity="0.16"/>
<line y1="191.5" x2="1728" y2="191.5" stroke="#AAAAAA" stroke-opacity="0.16"/>
<line y1="223.5" x2="1728" y2="223.5" stroke="#AAAAAA" stroke-opacity="0.16"/>
<line y1="255.5" x2="1728" y2="255.5" stroke="#AAAAAA" stroke-opacity="0.16"/>
<line y1="287.5" x2="1728" y2="287.5" stroke="#AAAAAA" stroke-opacity="0.16"/>
<line y1="319.5" x2="1728" y2="319.5" stroke="#AAAAAA" stroke-opacity="0.16"/>
<line y1="351.5" x2="1728" y2="351.5" stroke="#AAAAAA" stroke-opacity="0.16"/>
<line y1="383.5" x2="1728" y2="383.5" stroke="#AAAAAA" stroke-opacity="0.16"/>
<line y1="415.5" x2="1728" y2="415.5" stroke="#AAAAAA" stroke-opacity="0.16"/>
<line y1="447.5" x2="1728" y2="447.5" stroke="#AAAAAA" stroke-opacity="0.16"/>
<line y1="479.5" x2="1728" y2="479.5" stroke="#AAAAAA" stroke-opacity="0.16"/>
<line y1="511.5" x2="1728" y2="511.5" stroke="#AAAAAA" stroke-opacity="0.16"/>
<line y1="543.5" x2="1728" y2="543.5" stroke="#AAAAAA" stroke-opacity="0.16"/>
<line y1="575.5" x2="1728" y2="575.5" stroke="#AAAAAA" stroke-opacity="0.16"/>
<line y1="607.5" x2="1728" y2="607.5" stroke="#AAAAAA" stroke-opacity="0.16"/>
<line y1="639.5" x2="1728" y2="639.5" stroke="#AAAAAA" stroke-opacity="0.16"/>
<line y1="671.5" x2="1728" y2="671.5" stroke="#AAAAAA" stroke-opacity="0.16"/>
<line y1="703.5" x2="1728" y2="703.5" stroke="#AAAAAA" stroke-opacity="0.16"/>
<line y1="735.5" x2="1728" y2="735.5" stroke="#AAAAAA" stroke-opacity="0.16"/>
<line y1="767.5" x2="1728" y2="767.5" stroke="#AAAAAA" stroke-opacity="0.16"/>
<line y1="799.5" x2="1728" y2="799.5" stroke="#AAAAAA" stroke-opacity="0.16"/>
<line y1="831.5" x2="1728" y2="831.5" stroke="#AAAAAA" stroke-opacity="0.16"/>
<line y1="863.5" x2="1728" y2="863.5" stroke="#AAAAAA" stroke-opacity="0.16"/>
<line y1="895.5" x2="1728" y2="895.5" stroke="#AAAAAA" stroke-opacity="0.16"/>
<line y1="927.5" x2="1728" y2="927.5" stroke="#AAAAAA" stroke-opacity="0.16"/>
<line y1="959.5" x2="1728" y2="959.5" stroke="#AAAAAA" stroke-opacity="0.16"/>
<line y1="991.5" x2="1728" y2="991.5" stroke="#AAAAAA" stroke-opacity="0.16"/>
<line y1="1023.5" x2="1728" y2="1023.5" stroke="#AAAAAA" stroke-opacity="0.16"/>
<line x1="0.5" y1="1.32171e-08" x2="0.499924" y2="1055" stroke="#AAAAAA" stroke-opacity="0.16"/>
<line x1="32.5" y1="1.32171e-08" x2="32.4999" y2="1055" stroke="#AAAAAA" stroke-opacity="0.16"/>
<line x1="64.5" y1="1.33436e-08" x2="64.4999" y2="1055" stroke="#AAAAAA" stroke-opacity="0.16"/>
<line x1="96.5" y1="1.33436e-08" x2="96.4999" y2="1055" stroke="#AAAAAA" stroke-opacity="0.16"/>
<line x1="128.5" y1="1.33436e-08" x2="128.5" y2="1055" stroke="#AAAAAA" stroke-opacity="0.16"/>
<line x1="160.5" y1="1.33436e-08" x2="160.5" y2="1055" stroke="#AAAAAA" stroke-opacity="0.16"/>
<line x1="192.501" y1="1.33436e-08" x2="192.501" y2="1055" stroke="#AAAAAA" stroke-opacity="0.16"/>
<line x1="224.501" y1="1.33436e-08" x2="224.501" y2="1055" stroke="#AAAAAA" stroke-opacity="0.16"/>
<line x1="256.501" y1="1.33436e-08" x2="256.501" y2="1055" stroke="#AAAAAA" stroke-opacity="0.16"/>
<line x1="288.501" y1="1.33436e-08" x2="288.501" y2="1055" stroke="#AAAAAA" stroke-opacity="0.16"/>
<line x1="320.501" y1="1.33436e-08" x2="320.501" y2="1055" stroke="#AAAAAA" stroke-opacity="0.16"/>
<line x1="352.501" y1="1.33436e-08" x2="352.501" y2="1055" stroke="#AAAAAA" stroke-opacity="0.16"/>
<line x1="384.501" y1="1.33436e-08" x2="384.501" y2="1055" stroke="#AAAAAA" stroke-opacity="0.16"/>
<line x1="416.501" y1="1.33436e-08" x2="416.501" y2="1055" stroke="#AAAAAA" stroke-opacity="0.16"/>
<line x1="448.501" y1="1.33436e-08" x2="448.501" y2="1055" stroke="#AAAAAA" stroke-opacity="0.16"/>
<line x1="480.501" y1="1.33436e-08" x2="480.501" y2="1055" stroke="#AAAAAA" stroke-opacity="0.16"/>
<line x1="512.501" y1="1.33436e-08" x2="512.501" y2="1055" stroke="#AAAAAA" stroke-opacity="0.16"/>
<line x1="544.501" y1="1.33436e-08" x2="544.501" y2="1055" stroke="#AAAAAA" stroke-opacity="0.16"/>
<line x1="576.501" y1="1.33436e-08" x2="576.501" y2="1055" stroke="#AAAAAA" stroke-opacity="0.16"/>
<line x1="608.501" y1="1.33436e-08" x2="608.501" y2="1055" stroke="#AAAAAA" stroke-opacity="0.16"/>
<line x1="640.501" y1="1.33436e-08" x2="640.501" y2="1055" stroke="#AAAAAA" stroke-opacity="0.16"/>
<line x1="672.502" y1="1.33436e-08" x2="672.502" y2="1055" stroke="#AAAAAA" stroke-opacity="0.16"/>
<line x1="704.502" y1="1.33436e-08" x2="704.502" y2="1055" stroke="#AAAAAA" stroke-opacity="0.16"/>
<line x1="736.502" y1="1.33436e-08" x2="736.502" y2="1055" stroke="#AAAAAA" stroke-opacity="0.16"/>
<line x1="768.502" y1="1.33436e-08" x2="768.502" y2="1055" stroke="#AAAAAA" stroke-opacity="0.16"/>
<line x1="800.502" y1="1.33436e-08" x2="800.502" y2="1055" stroke="#AAAAAA" stroke-opacity="0.16"/>
<line x1="832.502" y1="1.33436e-08" x2="832.502" y2="1055" stroke="#AAAAAA" stroke-opacity="0.16"/>
<line x1="864.502" y1="1.33436e-08" x2="864.502" y2="1055" stroke="#AAAAAA" stroke-opacity="0.16"/>
<line x1="896.502" y1="1.33436e-08" x2="896.502" y2="1055" stroke="#AAAAAA" stroke-opacity="0.16"/>
<line x1="928.502" y1="1.33436e-08" x2="928.502" y2="1055" stroke="#AAAAAA" stroke-opacity="0.16"/>
<line x1="960.502" y1="1.33436e-08" x2="960.502" y2="1055" stroke="#AAAAAA" stroke-opacity="0.16"/>
<line x1="992.502" y1="1.33436e-08" x2="992.502" y2="1055" stroke="#AAAAAA" stroke-opacity="0.16"/>
<line x1="1024.5" y1="1.33436e-08" x2="1024.5" y2="1055" stroke="#AAAAAA" stroke-opacity="0.16"/>
<line x1="1056.5" y1="1.33436e-08" x2="1056.5" y2="1055" stroke="#AAAAAA" stroke-opacity="0.16"/>
<line x1="1088.5" y1="1.33436e-08" x2="1088.5" y2="1055" stroke="#AAAAAA" stroke-opacity="0.16"/>
<line x1="1120.5" y1="1.33436e-08" x2="1120.5" y2="1055" stroke="#AAAAAA" stroke-opacity="0.16"/>
<line x1="1152.5" y1="1.33436e-08" x2="1152.5" y2="1055" stroke="#AAAAAA" stroke-opacity="0.16"/>
<line x1="1184.5" y1="1.33436e-08" x2="1184.5" y2="1055" stroke="#AAAAAA" stroke-opacity="0.16"/>
<line x1="1216.5" y1="1.33436e-08" x2="1216.5" y2="1055" stroke="#AAAAAA" stroke-opacity="0.16"/>
<line x1="1248.5" y1="1.33436e-08" x2="1248.5" y2="1055" stroke="#AAAAAA" stroke-opacity="0.16"/>
<line x1="1280.5" y1="1.33436e-08" x2="1280.5" y2="1055" stroke="#AAAAAA" stroke-opacity="0.16"/>
<line x1="1312.5" y1="1.33436e-08" x2="1312.5" y2="1055" stroke="#AAAAAA" stroke-opacity="0.16"/>
<line x1="1344.5" y1="1.33436e-08" x2="1344.5" y2="1055" stroke="#AAAAAA" stroke-opacity="0.16"/>
<line x1="1376.5" y1="1.33436e-08" x2="1376.5" y2="1055" stroke="#AAAAAA" stroke-opacity="0.16"/>
<line x1="1408.5" y1="1.33436e-08" x2="1408.5" y2="1055" stroke="#AAAAAA" stroke-opacity="0.16"/>
<line x1="1440.5" y1="1.33436e-08" x2="1440.5" y2="1055" stroke="#AAAAAA" stroke-opacity="0.16"/>
<line x1="1472.5" y1="1.33436e-08" x2="1472.5" y2="1055" stroke="#AAAAAA" stroke-opacity="0.16"/>
<line x1="1504.5" y1="1.33436e-08" x2="1504.5" y2="1055" stroke="#AAAAAA" stroke-opacity="0.16"/>
<line x1="1536.5" y1="1.33436e-08" x2="1536.5" y2="1055" stroke="#AAAAAA" stroke-opacity="0.16"/>
<line x1="1568.5" y1="1.33436e-08" x2="1568.5" y2="1055" stroke="#AAAAAA" stroke-opacity="0.16"/>
<line x1="1600.5" y1="1.33436e-08" x2="1600.5" y2="1055" stroke="#AAAAAA" stroke-opacity="0.16"/>
<line x1="1632.5" y1="1.33436e-08" x2="1632.5" y2="1055" stroke="#AAAAAA" stroke-opacity="0.16"/>
<line x1="1664.5" y1="1.33436e-08" x2="1664.5" y2="1055" stroke="#AAAAAA" stroke-opacity="0.16"/>
<line x1="1696.5" y1="1.33436e-08" x2="1696.5" y2="1055" stroke="#AAAAAA" stroke-opacity="0.16"/>
<rect width="1728" height="1055" fill="url(#paint0_linear_142_223)"/>
<rect width="1728" height="1055" fill="url(#paint1_linear_142_223)"/>
<rect width="1728" height="1055" fill="url(#paint2_linear_142_223)"/>
<rect width="1728" height="1055" fill="url(#paint3_linear_142_223)"/>
<rect width="1728" height="1055" fill="url(#paint4_linear_142_223)"/>
<defs>
<linearGradient id="paint0_linear_142_223" x1="13.5157" y1="1021.18" x2="463.489" y2="659.902" gradientUnits="userSpaceOnUse">
<stop stop-color="white"/>
<stop offset="1" stop-color="white" stop-opacity="0"/>
</linearGradient>
<linearGradient id="paint1_linear_142_223" x1="0" y1="0" x2="405.642" y2="326.808" gradientUnits="userSpaceOnUse">
<stop stop-color="white"/>
<stop offset="1" stop-color="white" stop-opacity="0"/>
</linearGradient>
<linearGradient id="paint2_linear_142_223" x1="1728" y1="0" x2="1240.5" y2="365.578" gradientUnits="userSpaceOnUse">
<stop stop-color="white"/>
<stop offset="1" stop-color="white" stop-opacity="0"/>
</linearGradient>
<linearGradient id="paint3_linear_142_223" x1="1728" y1="1093.87" x2="1209.69" y2="645.877" gradientUnits="userSpaceOnUse">
<stop stop-color="white"/>
<stop offset="1" stop-color="white" stop-opacity="0"/>
</linearGradient>
<linearGradient id="paint4_linear_142_223" x1="864" y1="528" x2="864" y2="977.5" gradientUnits="userSpaceOnUse">
<stop stop-color="white" stop-opacity="0"/>
<stop offset="1" stop-color="white"/>
</linearGradient>
</defs>
</svg>
