<svg width="24" height="24" viewBox="0 0 24 24" fill="none" xmlns="http://www.w3.org/2000/svg">
<path d="M12.2746 4C12.6543 4 12.9681 4.28215 13.0178 4.64823L13.0246 4.75L13.024 17.934L17.7675 13.171C18.0598 12.8775 18.5347 12.8765 18.8282 13.1687C19.095 13.4344 19.1201 13.851 18.9029 14.1451L18.8305 14.2294L12.8065 20.2794C12.7679 20.3181 12.7263 20.3517 12.6822 20.3802C12.669 20.3883 12.6554 20.3965 12.6416 20.4042C12.6297 20.4114 12.6174 20.4178 12.605 20.4239C12.5869 20.4324 12.5681 20.4407 12.5491 20.4482C12.5343 20.4543 12.52 20.4594 12.5056 20.464C12.4877 20.4696 12.4686 20.4749 12.4493 20.4796C12.4358 20.483 12.4227 20.4857 12.4097 20.4881C12.3903 20.4914 12.3701 20.4943 12.3498 20.4963C12.3343 20.498 12.3189 20.4991 12.3035 20.4997C12.2942 20.4998 12.2844 20.5 12.2746 20.5L12.2455 20.4996C12.2308 20.4991 12.2161 20.498 12.2014 20.4966L12.2746 20.5C12.2273 20.5 12.181 20.4956 12.1361 20.4872C12.1253 20.4853 12.1143 20.483 12.1034 20.4804C12.0808 20.4751 12.0591 20.4689 12.0377 20.4618C12.0272 20.4584 12.0158 20.4543 12.0046 20.45C11.982 20.4412 11.9605 20.4317 11.9396 20.4212C11.9297 20.4163 11.9194 20.4109 11.9092 20.4052C11.8925 20.3958 11.8767 20.3861 11.8613 20.3759C11.8504 20.3687 11.839 20.3607 11.8278 20.3524L11.8192 20.3459C11.7928 20.3257 11.7677 20.3038 11.7443 20.2803L11.7436 20.2794L5.71857 14.2294C5.42629 13.9359 5.42727 13.4611 5.72077 13.1688C5.98759 12.9031 6.4043 12.8797 6.69746 13.0982L6.78143 13.171L11.524 17.932L11.5246 4.75C11.5246 4.33579 11.8604 4 12.2746 4Z" fill="white"/>
</svg>
