<svg width="54" height="54" viewBox="0 0 54 54" fill="none" xmlns="http://www.w3.org/2000/svg">
<path d="M54 27C54 33.989 51.3444 40.3575 46.9872 45.1535C46.1241 46.1034 45.1938 46.9914 44.2046 47.8101C41.8175 49.7853 39.0855 51.3578 36.1119 52.4234L35.545 52.6195C33.415 53.3299 31.1662 53.7821 28.8368 53.9381C28.2607 53.9773 27.6794 53.9979 27.0929 53.999C27.062 54 27.031 54 27 54C23.7187 54 20.5747 53.4146 17.6651 52.3418C17.5794 52.3108 17.4937 52.2788 17.408 52.2458H17.407C16.7916 52.0114 16.1876 51.7564 15.595 51.4786C15.5309 51.4487 15.468 51.4187 15.4039 51.3878C6.29621 47.0512 0 37.7608 0 27C0 12.0886 12.0886 0 27 0C41.9114 0 54 12.0886 54 27Z" fill="#672C67"/>
<path d="M26.6592 20.2008C21.8054 20.5446 17.218 22.3825 13.6703 25.989C14.4963 25.8052 15.1953 25.5832 15.9088 25.5182C16.2784 25.4851 16.8834 25.6297 17.0063 25.8785C17.1612 26.1934 17.0755 26.8099 16.8442 27.0979C16.329 27.7463 15.6672 28.2812 15.0497 28.846C14.0988 29.7153 13.0663 30.5072 12.1969 31.4489C11.0994 32.6363 10.5119 34.09 10.4282 35.868C10.7886 35.4602 11.0188 35.137 11.3089 34.882C11.8015 34.4483 12.4674 34.1468 12.9806 34.5939C13.3523 34.9171 13.6001 35.5996 13.5763 36.1076C13.5495 36.7147 13.2325 37.3362 12.9362 37.8979C12.6099 38.5123 12.1329 39.0481 11.7725 39.648C10.8113 41.2515 10.549 43.8637 11.1706 45.206C11.3296 44.8962 11.4711 44.5576 11.6662 44.253C12.3043 43.2556 13.0405 42.7703 13.7611 42.791C13.851 44.8157 14.9465 49.6964 15.6083 51.4774C16.201 51.7552 16.805 52.0102 17.4203 52.2446H17.4214C17.5071 52.2776 17.5928 52.3096 17.6785 52.3406C20.5881 53.4134 23.732 53.9988 27.0133 53.9988C27.6308 53.9988 28.2431 53.9782 28.8502 53.9369C31.1795 53.7809 33.4283 53.3287 35.5584 52.6183L36.1252 52.4222C39.0988 51.3566 41.8308 49.7841 44.218 47.8089C43.1215 45.811 41.2857 44.9706 39.2145 44.3955C38.2191 44.1208 36.6239 43.6139 35.2414 42.5679C33.7577 41.4456 32.5063 39.7358 32.115 38.092C31.6462 36.123 32.1459 34.8386 32.5889 34.1489C32.8573 33.7338 33.1041 33.5346 33.1041 33.5346C33.1041 33.5346 40.4731 27.609 40.0518 23.417C40.0054 22.9669 39.9042 22.5745 39.7607 22.2338C39.5521 21.7464 39.2568 21.3624 38.9099 21.0609C37.5211 19.8611 32.402 19.1993 30.7138 19.0093L26.6592 20.2008V20.2008Z" fill="url(#paint0_linear_103_2)"/>
<path d="M44.089 40.1851L41.2661 40.9058C40.4174 41.1226 39.5171 40.8604 38.9182 40.2223C38.0406 39.2879 36.7778 38.0334 36.1439 37.83C35.5223 37.6317 32.7149 36.4464 31.669 34.0634C31.1311 32.8399 31.0577 31.3004 31.9839 29.4171C23.8973 34.7015 20.6852 43.1608 27.1063 53.998C27.0754 53.999 27.0444 53.999 27.0134 53.999C23.7321 53.999 20.5881 53.4136 17.6785 52.3408C17.5929 52.3098 17.5072 52.2778 17.4215 52.2448H17.4204C16.8051 52.0104 16.201 51.7554 15.6084 51.4776C15.5444 51.4477 15.4814 51.4177 15.4174 51.3868C15.0725 50.505 14.6987 49.2763 14.4654 48.4545C14.4654 48.4534 14.4654 48.4524 14.4654 48.4503C14.4024 48.2314 14.3436 48.0105 14.2868 47.7885C11.9688 38.6983 15.659 26.238 28.9184 22.5004C32.3442 21.534 36.4454 22.0616 36.7355 21.5722C36.8615 21.3595 37.0122 21.0755 37.1764 20.7637C37.926 19.3347 38.9657 17.3172 39.3384 18.7772L44.5856 39.3498C44.6796 39.7174 44.4576 40.0922 44.09 40.1851H44.089Z" fill="url(#paint1_linear_103_2)"/>
<path d="M23.7484 19.186L25.8679 18.6908L27.8916 18.2176L25.2391 15.1669C25.0577 14.9586 24.7264 15.0356 24.6638 15.3017L23.7483 19.187L23.7484 19.186Z" fill="#917091"/>
<path d="M33.076 16.9214L35.1956 16.4262L37.2193 15.9529L34.5667 12.9022C34.3854 12.694 34.054 12.771 33.9915 13.0371L33.076 16.9224L33.076 16.9214Z" fill="#917091"/>
<path d="M34.9867 15.7181L29.1388 10.6775C28.9579 10.522 28.678 10.5869 28.5915 10.8056L25.7794 17.8681L22.2631 15.2541C21.9993 15.0932 21.6742 15.3257 21.7491 15.6227L23.4973 22.5989C23.5332 22.7432 23.6958 22.8163 23.8286 22.7483C26.9721 21.1475 30.8564 19.945 35.4787 20.3703C35.6236 20.3836 35.7617 20.3065 35.8198 20.1751C37.2027 17.605 37.7793 17.2115 38.4509 16.6569C38.5675 16.5605 38.6545 16.5069 38.6234 16.3822L37.5101 11.9399C37.4362 11.6441 37.0371 11.5798 36.8784 11.8395L34.9867 15.7181Z" fill="url(#paint2_linear_103_2)"/>
<path d="M37.6508 9.55733C37.7978 9.13871 37.5786 8.67838 37.1612 8.52916C36.7438 8.37993 36.2863 8.59831 36.1393 9.01693C35.9922 9.43555 36.2114 9.89588 36.6288 10.0451C37.0462 10.1943 37.5037 9.97595 37.6508 9.55733Z" fill="#FEFEFF"/>
<path d="M29.0565 8.69307C29.2035 8.27446 28.9844 7.81413 28.567 7.6649C28.1496 7.51567 27.692 7.73405 27.545 8.15267C27.398 8.57129 27.6172 9.03162 28.0346 9.18085C28.452 9.33007 28.9095 9.11169 29.0565 8.69307Z" fill="#FEFEFF"/>
<path d="M21.9276 13.3762C22.0746 12.9576 21.8555 12.4972 21.4381 12.348C21.0207 12.1988 20.5631 12.4172 20.4161 12.8358C20.2691 13.2544 20.4883 13.7147 20.9057 13.864C21.3231 14.0132 21.7806 13.7948 21.9276 13.3762Z" fill="#FEFEFF"/>
<defs>
<linearGradient id="paint0_linear_103_2" x1="46.1611" y1="20.2369" x2="15.0229" y2="51.3752" gradientUnits="userSpaceOnUse">
<stop stop-color="#672C67"/>
<stop offset="1" stop-color="white"/>
</linearGradient>
<linearGradient id="paint1_linear_103_2" x1="-4.07839" y1="70.0834" x2="38.4216" y2="27.5834" gradientUnits="userSpaceOnUse">
<stop stop-color="#672C67"/>
<stop offset="1" stop-color="white"/>
</linearGradient>
<linearGradient id="paint2_linear_103_2" x1="27.7652" y1="6.52598" x2="32.6375" y2="28.0568" gradientUnits="userSpaceOnUse">
<stop stop-color="#672C67"/>
<stop offset="0.630208" stop-color="#FEFEFF"/>
</linearGradient>
</defs>
</svg>
