<svg width="99" height="98" viewBox="0 0 99 98" fill="none" xmlns="http://www.w3.org/2000/svg">
<rect x="2.5" y="1.99997" width="94" height="94" rx="47" stroke="white" stroke-width="4"/>
<path d="M94.5 49C94.5 60.6483 90.074 71.2625 82.812 79.2558C81.3734 80.839 79.8229 82.3189 78.1744 83.6835C74.1958 86.9755 69.6424 89.5963 64.6864 91.3722L63.7417 91.6992C60.1916 92.8831 56.4436 93.6369 52.5614 93.8967C51.6011 93.9621 50.6323 93.9965 49.6549 93.9982C49.6032 94 49.5516 94 49.5 94C44.0312 94 38.7912 93.0242 33.9419 91.2363C33.799 91.1847 33.6562 91.1313 33.5134 91.0763H33.5117C32.486 90.6856 31.4794 90.2606 30.4916 89.7977C30.3849 89.7478 30.2799 89.6979 30.1732 89.6462C14.9937 82.4187 4.5 66.9346 4.5 49C4.5 24.1476 24.6476 3.99997 49.5 3.99997C74.3524 3.99997 94.5 24.1476 94.5 49Z" fill="#141517"/>
<path d="M48.9325 37.6682C40.8428 38.2412 33.1971 41.3043 27.2843 47.3152C28.661 47.0089 29.826 46.6389 31.0151 46.5305C31.6311 46.4754 32.6396 46.7164 32.8443 47.1311C33.1025 47.6559 32.9596 48.6833 32.5742 49.1634C31.7155 50.2441 30.6124 51.1355 29.5833 52.0768C27.9985 53.5257 26.2776 54.8456 24.8287 56.415C22.9994 58.394 22.0202 60.8169 21.8809 63.7802C22.4814 63.1005 22.8652 62.5619 23.3487 62.1368C24.1696 61.4141 25.2795 60.9116 26.1348 61.6567C26.7543 62.1953 27.1673 63.3328 27.1277 64.1795C27.083 65.1913 26.5547 66.2273 26.0608 67.1634C25.517 68.1873 24.722 69.0804 24.1214 70.0802C22.5193 72.7527 22.0822 77.1064 23.1181 79.3435C23.3832 78.8273 23.6189 78.2628 23.9441 77.7552C25.0076 76.0928 26.2346 75.284 27.4357 75.3185C27.5854 78.693 29.4113 86.8275 30.5143 89.7959C31.5021 90.2588 32.5088 90.6839 33.5344 91.0745H33.5361C33.6789 91.1296 33.8218 91.1829 33.9646 91.2345C38.8139 93.0225 44.0539 93.9982 49.5227 93.9982C50.5518 93.9982 51.5723 93.9638 52.5841 93.8949C56.4663 93.6351 60.2143 92.8814 63.7644 91.6974L64.7092 91.3705C69.6652 89.5946 74.2185 86.9737 78.1971 83.6818C76.3696 80.3519 73.3099 78.9512 69.8579 77.9927C68.199 77.5349 65.5403 76.69 63.2361 74.9468C60.7633 73.0762 58.6776 70.2265 58.0254 67.4869C57.2441 64.2053 58.077 62.0645 58.8153 60.915C59.2627 60.2232 59.674 59.8911 59.674 59.8911C59.674 59.8911 71.9556 50.0152 71.2535 43.0286C71.1761 42.2783 71.0074 41.6244 70.7682 41.0565C70.4206 40.2443 69.9285 39.6041 69.3503 39.1016C67.0357 37.102 58.5038 35.999 55.6902 35.6823L48.9325 37.6682V37.6682Z" fill="url(#paint0_linear_54_1686)"/>
<path d="M77.9823 70.9751L73.2775 72.1762C71.863 72.5376 70.3624 72.1005 69.3643 71.0371C67.9016 69.4797 65.797 67.3889 64.7404 67.0499C63.7045 66.7195 59.0255 64.7439 57.2823 60.7722C56.3857 58.733 56.2636 56.1673 57.8072 53.0284C44.3295 61.8357 38.976 75.9346 49.6779 93.9965C49.6263 93.9982 49.5747 93.9982 49.523 93.9982C44.0542 93.9982 38.8142 93.0225 33.9649 91.2346C33.8221 91.1829 33.6792 91.1296 33.5364 91.0745H33.5347C32.5091 90.6839 31.5024 90.2588 30.5146 89.7959C30.4079 89.746 30.3029 89.6961 30.1963 89.6445C29.6215 88.1749 28.9986 86.1271 28.6096 84.7573C28.6096 84.7556 28.6096 84.7539 28.6096 84.7504C28.5047 84.3856 28.4066 84.0174 28.3119 83.6474C24.4486 68.4971 30.5989 47.73 52.698 41.5005C58.4077 39.8898 65.2429 40.7692 65.7265 39.9535C65.9364 39.599 66.1877 39.1258 66.4613 38.6061C67.7106 36.2244 69.4435 32.8619 70.0647 35.2952L78.81 69.5829C78.9666 70.1956 78.5966 70.8202 77.984 70.9751H77.9823Z" fill="url(#paint1_linear_54_1686)"/>
<path d="M44.0803 35.9771L47.6129 35.1518L50.9857 34.363L46.5648 29.2785C46.2626 28.9315 45.7103 29.0598 45.6061 29.5033L44.0803 35.9788L44.0803 35.9771Z" fill="#8F8F8F"/>
<path d="M59.6262 32.202L63.1588 31.3766L66.5316 30.5879L62.1107 25.5034C61.8085 25.1564 61.2562 25.2847 61.152 25.7282L59.6262 32.2037L59.6262 32.202Z" fill="#8F8F8F"/>
<path d="M62.8101 30.1973L53.0638 21.7963C52.7623 21.5371 52.2957 21.6453 52.1515 22.0098L47.4647 33.7806L41.6042 29.4239C41.1646 29.1557 40.6226 29.5433 40.7475 30.0382L43.6611 41.6653C43.7211 41.9058 43.992 42.0276 44.2133 41.9144C49.4525 39.2463 55.9263 37.2422 63.6302 37.951C63.8717 37.9731 64.1018 37.8447 64.1988 37.6256C66.5035 33.3421 67.4646 32.6863 68.5839 31.7619C68.7783 31.6014 68.9232 31.512 68.8713 31.3041L67.0158 23.9004C66.8927 23.4073 66.2276 23.3001 65.963 23.7329L62.8101 30.1973Z" fill="url(#paint2_linear_54_1686)"/>
<path d="M67.2509 19.9291C67.496 19.2314 67.1307 18.4642 66.435 18.2155C65.7394 17.9668 64.9768 18.3308 64.7318 19.0285C64.4867 19.7262 64.852 20.4934 65.5477 20.7421C66.2433 20.9908 67.0059 20.6268 67.2509 19.9291Z" fill="#FEFEFF"/>
<path d="M52.9277 18.4886C53.1727 17.7909 52.8074 17.0237 52.1118 16.775C51.4161 16.5263 50.6535 16.8902 50.4085 17.5879C50.1635 18.2856 50.5288 19.0528 51.2244 19.3015C51.9201 19.5503 52.6827 19.1863 52.9277 18.4886Z" fill="#FEFEFF"/>
<path d="M41.0459 26.294C41.2909 25.5963 40.9256 24.8291 40.2299 24.5803C39.5343 24.3316 38.7717 24.6956 38.5267 25.3933C38.2816 26.091 38.6469 26.8582 39.3426 27.1069C40.0383 27.3556 40.8008 26.9917 41.0459 26.294Z" fill="#FEFEFF"/>
<defs>
<linearGradient id="paint0_linear_54_1686" x1="81.4357" y1="37.7284" x2="29.5386" y2="89.6255" gradientUnits="userSpaceOnUse">
<stop stop-color="#666666"/>
<stop offset="1" stop-color="white"/>
</linearGradient>
<linearGradient id="paint1_linear_54_1686" x1="-2.29667" y1="120.806" x2="68.5366" y2="49.9722" gradientUnits="userSpaceOnUse">
<stop stop-color="#6A6A6A"/>
<stop offset="1" stop-color="white"/>
</linearGradient>
<linearGradient id="paint2_linear_54_1686" x1="50.7743" y1="14.8771" x2="58.8949" y2="50.7618" gradientUnits="userSpaceOnUse">
<stop/>
<stop offset="0.630208" stop-color="#DADADA"/>
</linearGradient>
</defs>
</svg>
