<svg width="115" height="121" viewBox="0 0 115 121" fill="none" xmlns="http://www.w3.org/2000/svg">
<path d="M89 31.5C89 39.6539 85.9018 47.0838 80.8184 52.6791C79.8114 53.7873 78.7261 54.8233 77.5721 55.7785C74.7871 58.0829 71.5997 59.9175 68.1305 61.1606L67.4692 61.3895C64.9841 62.2182 62.3605 62.7458 59.643 62.9277C58.9708 62.9735 58.2926 62.9976 57.6084 62.9988C57.5723 63 57.5361 63 57.5 63C53.6718 63 50.0038 62.317 46.6093 61.0654C46.5093 61.0293 46.4094 60.992 46.3094 60.9534H46.3082C45.5902 60.68 44.8855 60.3824 44.1941 60.0584C44.1194 60.0235 44.0459 59.9885 43.9713 59.9524C33.3456 54.8931 26 44.0542 26 31.5C26 14.1033 40.1033 0 57.5 0C74.8967 0 89 14.1033 89 31.5Z" fill="#672C67"/>
<path d="M57.1022 23.5678C51.4394 23.969 46.0874 26.1131 41.9484 30.3208C42.9121 30.1063 43.7276 29.8474 44.56 29.7715C44.9912 29.7329 45.6971 29.9016 45.8405 30.1919C46.0211 30.5593 45.9212 31.2784 45.6513 31.6145C45.0502 32.371 44.2781 32.9949 43.5578 33.6539C42.4483 34.6681 41.2437 35.592 40.2295 36.6906C38.949 38.0759 38.2636 39.772 38.166 41.8463C38.5864 41.3704 38.855 40.9934 39.1935 40.6959C39.7681 40.19 40.5451 39.8382 41.1438 40.3598C41.5774 40.7368 41.8665 41.5331 41.8388 42.1257C41.8075 42.834 41.4377 43.5592 41.092 44.2145C40.7113 44.9312 40.1548 45.5564 39.7344 46.2563C38.6129 48.127 38.307 51.1746 39.0321 52.7406C39.2176 52.3792 39.3827 51.9841 39.6103 51.6287C40.3548 50.4651 41.2136 49.8989 42.0544 49.923C42.1592 52.2852 43.4373 57.9793 44.2094 60.0572C44.9009 60.3813 45.6056 60.6788 46.3235 60.9522H46.3247C46.4247 60.9908 46.5247 61.0281 46.6246 61.0643C50.0192 62.3158 53.6871 62.9988 57.5153 62.9988C58.2357 62.9988 58.95 62.9748 59.6583 62.9266C62.3758 62.7447 64.9994 62.2171 67.4845 61.3883L68.1458 61.1594C71.615 59.9163 74.8024 58.0817 77.5874 55.7773C76.3081 53.4464 74.1664 52.4659 71.75 51.795C70.5887 51.4745 68.7276 50.8831 67.1147 49.6628C65.3837 48.3534 63.9237 46.3586 63.4672 44.4409C62.9203 42.1438 63.5033 40.6453 64.0201 39.8406C64.3333 39.3564 64.6212 39.1239 64.6212 39.1239C64.6212 39.1239 73.2183 32.2108 72.7269 27.3201C72.6727 26.7949 72.5546 26.3372 72.3872 25.9397C72.1439 25.3711 71.7993 24.923 71.3946 24.5713C69.7744 23.1715 63.8021 22.3994 61.8326 22.1777L57.1022 23.5678Z" fill="url(#paint0_linear_54_1291)"/>
<path d="M77.4363 46.8825L74.143 47.7233C73.1528 47.9762 72.1024 47.6703 71.4038 46.9258C70.3799 45.8357 68.9066 44.3721 68.167 44.1348C67.4419 43.9035 64.1666 42.5207 62.9463 39.7405C62.3187 38.313 62.2332 36.517 63.3137 34.3198C53.8794 40.4849 50.1319 50.3541 57.6233 62.9975C57.5871 62.9987 57.551 62.9987 57.5148 62.9987C53.6867 62.9987 50.0187 62.3157 46.6242 61.0641C46.5242 61.028 46.4242 60.9906 46.3242 60.9521H46.323C45.6051 60.6786 44.9004 60.3811 44.209 60.0571C44.1343 60.0221 44.0608 59.9872 43.9861 59.9511C43.5838 58.9223 43.1477 57.4889 42.8755 56.53C42.8755 56.5288 42.8755 56.5276 42.8755 56.5252C42.802 56.2698 42.7333 56.0121 42.6671 55.7531C39.9628 45.1479 44.268 30.6109 59.7373 26.2503C63.7341 25.1228 68.5188 25.7383 68.8573 25.1674C69.0042 24.9192 69.1801 24.5879 69.3716 24.2242C70.2461 22.557 71.4592 20.2032 71.894 21.9065L78.0157 45.908C78.1254 46.3368 77.8664 46.7741 77.4375 46.8825H77.4363Z" fill="url(#paint1_linear_54_1291)"/>
<path d="M53.7056 22.3841L56.1784 21.8063L58.5394 21.2542L55.4448 17.6951C55.2332 17.4521 54.8466 17.542 54.7737 17.8524L53.7056 22.3853L53.7056 22.3841Z" fill="#917091"/>
<path d="M64.5894 19.7415L67.0622 19.1638L69.4232 18.6117L66.3285 15.0525C66.117 14.8096 65.7304 14.8994 65.6574 15.2098L64.5894 19.7427L64.5894 19.7415Z" fill="#917091"/>
<path d="M66.8173 18.3382L59.9948 12.4575C59.7838 12.2761 59.4572 12.3518 59.3562 12.607L56.0755 20.8465L51.9731 17.7968C51.6654 17.6091 51.286 17.8804 51.3734 18.2268L53.413 26.3658C53.455 26.5342 53.6446 26.6194 53.7995 26.5401C57.4669 24.6725 61.9986 23.2696 67.3913 23.7658C67.5604 23.7813 67.7215 23.6914 67.7893 23.538C69.4027 20.5396 70.0754 20.0805 70.8589 19.4334C70.995 19.321 71.0964 19.2585 71.0601 19.113L69.7613 13.9303C69.6751 13.5852 69.2095 13.5101 69.0243 13.8131L66.8173 18.3382Z" fill="url(#paint2_linear_54_1291)"/>
<path d="M69.9256 11.151C70.0971 10.6626 69.8414 10.1255 69.3544 9.95141C68.8675 9.77731 68.3337 10.0321 68.1621 10.5205C67.9906 11.0089 68.2463 11.5459 68.7333 11.72C69.2202 11.8941 69.754 11.6393 69.9256 11.151Z" fill="#FEFEFF"/>
<path d="M59.8992 10.1422C60.0707 9.65378 59.815 9.11672 59.3281 8.94262C58.8411 8.76853 58.3073 9.02331 58.1358 9.51169C57.9642 10.0001 58.22 10.5371 58.7069 10.7112C59.1939 10.8853 59.7277 10.6306 59.8992 10.1422Z" fill="#FEFEFF"/>
<path d="M51.5828 15.606C51.7543 15.1176 51.4986 14.5806 51.0116 14.4065C50.5247 14.2324 49.9909 14.4872 49.8194 14.9756C49.6478 15.4639 49.9035 16.001 50.3905 16.1751C50.8775 16.3492 51.4113 16.0944 51.5828 15.606Z" fill="#FEFEFF"/>
<path d="M0.164 92.644C0.164 91.9 0.452 91.18 1.028 90.484C1.604 89.788 2.24 89.116 2.936 88.468C3.632 87.82 4.652 87.052 5.996 86.164C7.364 85.252 8.816 84.448 10.352 83.752C11.888 83.032 13.772 82.42 16.004 81.916C18.236 81.412 20.54 81.16 22.916 81.16C24.98 81.16 27.032 81.556 29.072 82.348C30.104 82.756 30.944 83.356 31.592 84.148C32.264 84.916 32.6 85.816 32.6 86.848C32.6 88.456 31.628 90.064 29.684 91.672C27.74 93.28 24.344 95.068 19.496 97.036C19.016 97.156 18.776 97.324 18.776 97.54C18.776 97.612 18.824 97.696 18.92 97.792C22.328 101.728 25.136 104.476 27.344 106.036C27.608 106.252 27.74 106.468 27.74 106.684C27.74 107.212 26.96 107.476 25.4 107.476C23.84 107.476 22.544 106.972 21.512 105.964C17.144 101.332 14.396 98.236 13.268 96.676C13.244 96.58 13.196 96.532 13.124 96.532C13.076 96.532 13.016 96.58 12.944 96.676C9.056 101.452 6.812 104.584 6.212 106.072C6.212 106.456 6.14 106.648 5.996 106.648C5.876 106.648 5.672 106.576 5.384 106.432C5.096 106.288 4.796 106.012 4.484 105.604C4.172 105.196 4.016 104.704 4.016 104.128C4.016 103.528 4.256 102.796 4.736 101.932C8.144 96.988 11.744 92.836 15.536 89.476C17.144 88.06 18.656 86.956 20.072 86.164C20.288 85.972 20.48 85.876 20.648 85.876C20.84 85.876 21.056 85.96 21.296 86.128C21.56 86.296 21.692 86.5 21.692 86.74C21.692 86.956 21.596 87.148 21.404 87.316C18.26 90.484 16.1 92.848 14.924 94.408C14.612 94.744 14.456 94.972 14.456 95.092C14.456 95.212 14.516 95.272 14.636 95.272H14.78C17.66 94.48 19.988 93.688 21.764 92.896C25.532 91.192 28.388 89.392 30.332 87.496C30.74 87.112 30.944 86.74 30.944 86.38C30.944 85.828 30.476 85.408 29.54 85.12C28.628 84.832 27.164 84.688 25.148 84.688C23.156 84.688 20.708 84.988 17.804 85.588C14.9 86.188 12.008 87.16 9.128 88.504C6.248 89.824 4.112 91.36 2.72 93.112C2.528 93.328 2.432 93.484 2.432 93.58C2.432 93.652 2.564 93.688 2.828 93.688C3.092 93.688 3.908 93.388 5.276 92.788C6.668 92.188 7.856 91.6 8.84 91.024C10.376 89.992 11.336 89.476 11.72 89.476C11.864 89.476 11.936 89.512 11.936 89.584C11.936 89.632 11.78 89.836 11.468 90.196C11.18 90.556 10.76 91.012 10.208 91.564C9.68 92.116 9.02 92.728 8.228 93.4C6.428 94.96 4.772 95.74 3.26 95.74C2.444 95.74 1.784 95.488 1.28 94.984C0.752 94.456 0.44 93.928 0.344 93.4L0.164 92.644ZM29.0129 104.416C29.7809 104.416 30.7289 103.912 31.8569 102.904C32.9849 101.896 33.5729 101.2 33.6209 100.816C33.3329 100.576 33.0209 100.144 32.6849 99.52C32.3729 98.872 32.2049 98.548 32.1809 98.548C31.4369 99.244 30.7769 100.048 30.2009 100.96C29.2889 102.496 28.8329 103.552 28.8329 104.128C28.8329 104.32 28.8929 104.416 29.0129 104.416ZM36.7889 95.596C36.5489 95.596 36.0449 95.968 35.2769 96.712C34.5329 97.456 34.1609 97.972 34.1609 98.26C34.1609 98.332 34.2329 98.476 34.3769 98.692C34.5209 98.908 34.6289 99.016 34.7009 99.016C35.1089 99.016 35.5649 98.524 36.0689 97.54C36.5969 96.556 36.8609 95.992 36.8609 95.848C36.8609 95.68 36.8369 95.596 36.7889 95.596ZM36.8609 100.24C37.5329 100.24 38.5769 99.832 39.9929 99.016C41.4329 98.2 42.6929 97.384 43.7729 96.568L45.3929 95.308C45.6089 95.476 45.7169 95.68 45.7169 95.92C45.7169 96.16 45.6089 96.376 45.3929 96.568C41.4329 100.24 38.4329 102.076 36.3929 102.076C36.2489 102.076 36.0329 102.052 35.7449 102.004C33.0329 105.148 30.7049 106.72 28.7609 106.72C27.4649 106.528 26.6489 106.072 26.3129 105.352C26.1209 104.992 26.0249 104.536 26.0249 103.984C26.0249 102.4 26.9369 100.516 28.7609 98.332C30.5849 96.124 32.8769 94.504 35.6369 93.472C35.8769 93.472 36.0569 93.532 36.1769 93.652C36.2969 93.748 36.4049 93.808 36.5009 93.832C36.5969 93.832 36.7169 93.784 36.8609 93.688C37.0289 93.568 37.2449 93.508 37.5089 93.508C37.7729 93.484 38.0489 93.628 38.3369 93.94C38.7209 94.252 38.9129 94.636 38.9129 95.092C38.9129 96.436 38.2289 98.152 36.8609 100.24ZM52.4174 94.372C53.5454 94.492 54.1094 94.744 54.1094 95.128C54.1094 95.296 54.0134 95.488 53.8214 95.704C50.4374 99.472 46.5494 104.272 42.1574 110.104C40.8854 111.832 39.5894 113.464 38.2694 115C36.9494 116.536 35.7134 117.652 34.5614 118.348C33.4094 119.068 32.2094 119.428 30.9614 119.428C30.3374 119.428 29.7854 119.26 29.3054 118.924C28.8254 118.588 28.5854 118.132 28.5854 117.556C28.5854 116.212 29.2334 114.82 30.5294 113.38C31.8254 111.94 33.2774 110.764 34.8854 109.852C36.4934 108.964 37.8854 108.448 39.0614 108.304L39.8174 108.412C40.0574 108.388 40.9334 107.464 42.4454 105.64C43.9814 103.816 44.7494 102.856 44.7494 102.76C44.7734 102.64 44.7614 102.58 44.7134 102.58L44.0294 103.12C42.2294 104.8 40.8254 105.64 39.8174 105.64C39.1694 105.64 38.8454 105.184 38.8454 104.272C38.8454 103.048 39.8414 101.116 41.8334 98.476C43.8254 95.836 45.2894 94.516 46.2254 94.516C46.2974 94.516 46.3814 94.54 46.4774 94.588C47.1494 94.756 47.4854 94.996 47.4854 95.308C47.4854 95.428 47.4494 95.524 47.3774 95.596C47.3294 95.644 47.0894 95.872 46.6574 96.28C46.2494 96.688 45.8414 97.12 45.4334 97.576C45.0254 98.008 44.5934 98.488 44.1374 99.016C43.1054 100.216 42.5894 101.116 42.5894 101.716C42.5894 101.86 42.6614 101.932 42.8054 101.932C42.9734 101.932 43.2734 101.8 43.7054 101.536C47.1134 99.208 49.7774 96.988 51.6974 94.876C51.8654 94.54 52.1054 94.372 52.4174 94.372ZM30.4574 117.844C31.2974 117.58 32.4254 116.752 33.8414 115.36C35.2574 113.992 36.4694 112.696 37.4774 111.472L38.9894 109.6C39.1334 109.408 39.2054 109.288 39.2054 109.24C39.2054 109.192 39.1694 109.168 39.0974 109.168C38.3294 109.168 37.2374 109.756 35.8214 110.932C34.3814 112.108 33.1094 113.392 32.0054 114.784C30.8774 116.176 30.3134 117.16 30.3134 117.736C30.3134 117.808 30.3614 117.844 30.4574 117.844ZM57.0291 104.488L57.3171 102.184C57.3171 102.112 57.2931 102.076 57.2451 102.076C57.2211 102.076 57.1611 102.124 57.0651 102.22C56.7531 102.556 56.3571 102.976 55.8771 103.48C55.3971 103.96 54.5691 104.62 53.3931 105.46C52.2411 106.276 51.3051 106.684 50.5851 106.684C50.4651 106.66 50.3211 106.612 50.1531 106.54C49.9611 106.492 49.7211 106.3 49.4331 105.964C49.1451 105.628 49.0011 105.148 49.0011 104.524C49.0011 103.9 49.4811 102.952 50.4411 101.68C51.3771 100.384 52.5051 99.124 53.8251 97.9C55.1451 96.652 56.6091 95.572 58.2171 94.66C59.8491 93.748 61.2651 93.292 62.4651 93.292C62.9211 93.316 63.2811 93.64 63.5451 94.264C63.7851 94.024 64.0011 93.904 64.1931 93.904C64.3851 93.904 64.6131 94.048 64.8771 94.336C65.0211 94.36 65.1651 94.444 65.3091 94.588C65.4531 94.708 65.5251 94.888 65.5251 95.128C65.5251 95.368 65.3571 95.632 65.0211 95.92C64.5171 96.544 63.9291 97.252 63.2571 98.044C62.5851 98.836 62.1051 99.412 61.8171 99.772C61.5291 100.108 61.2291 100.492 60.9171 100.924C60.3891 101.668 60.1011 102.268 60.0531 102.724C62.5011 101.548 66.3531 99.016 71.6091 95.128C71.8251 95.296 71.9331 95.5 71.9331 95.74C71.9331 95.98 71.8371 96.184 71.6451 96.352C71.4531 96.52 71.2131 96.724 70.9251 96.964C70.6611 97.204 70.1211 97.672 69.3051 98.368C68.4891 99.064 67.6971 99.736 66.9291 100.384C66.1851 101.008 65.3211 101.716 64.3371 102.508C63.3771 103.276 62.5131 103.936 61.7451 104.488C59.8971 105.808 58.7451 106.468 58.2891 106.468C57.8331 106.468 57.5091 106.324 57.3171 106.036C57.1251 105.748 57.0291 105.232 57.0291 104.488ZM53.3571 102.976C53.6451 102.976 54.5211 102.388 55.9851 101.212C57.4731 100.036 58.8771 98.86 60.1971 97.684L62.2131 95.92C62.3091 95.824 62.3571 95.764 62.3571 95.74C62.3571 95.692 62.3211 95.668 62.2491 95.668C61.3371 95.668 60.1491 96.196 58.6851 97.252C57.2211 98.284 55.9491 99.388 54.8691 100.564C53.8131 101.716 53.2851 102.496 53.2851 102.904C53.2851 102.952 53.3091 102.976 53.3571 102.976ZM67.3844 86.884C69.7124 85.276 72.3644 84.004 75.3404 83.068C78.3164 82.132 80.7764 81.664 82.7204 81.664C84.6644 81.664 86.2244 81.88 87.4004 82.312C88.6004 82.72 89.4644 83.248 89.9924 83.896C90.8804 85 91.3244 85.96 91.3244 86.776C91.3244 87.76 90.6404 88.912 89.2724 90.232C88.5764 90.904 87.5924 91.648 86.3204 92.464L85.9244 92.68C85.7564 92.728 85.6724 92.8 85.6724 92.896L85.8884 93.076C86.8244 93.46 87.5324 93.916 88.0124 94.444C88.5164 94.972 88.7684 95.752 88.7684 96.784C88.7684 98.2 88.1324 99.556 86.8604 100.852C85.6124 102.124 84.1364 103.156 82.4324 103.948C80.7284 104.716 79.1324 105.328 77.6444 105.784C76.1564 106.24 75.0884 106.468 74.4404 106.468C73.8164 106.468 73.2524 106.384 72.7484 106.216C72.2444 106.072 71.8364 105.892 71.5244 105.676C70.8764 105.22 70.4204 104.752 70.1564 104.272C70.0604 104.152 69.9764 104.092 69.9044 104.092C69.7364 104.092 69.4244 104.62 68.9684 105.676C68.5124 106.732 68.2724 107.26 68.2484 107.26V107.224C68.1764 107.464 68.0564 107.584 67.8884 107.584C67.5044 107.584 67.1324 107.224 66.7724 106.504C66.4364 105.808 66.2684 105.268 66.2684 104.884C66.2684 104.476 66.5084 103.804 66.9884 102.868C67.4684 101.908 67.9484 101.092 68.4284 100.42L69.1484 99.412C69.7004 98.212 71.9804 95.704 75.9884 91.888C79.9964 88.072 82.2644 86.164 82.7924 86.164C83.0324 86.164 83.2244 86.248 83.3684 86.416C83.5364 86.56 83.6684 86.788 83.7644 87.1C83.7644 87.292 83.6564 87.448 83.4404 87.568L78.3644 93.04C78.3164 93.136 78.2924 93.208 78.2924 93.256C78.2924 93.28 78.3284 93.292 78.4004 93.292C78.9284 93.292 80.1284 92.884 82.0004 92.068C83.8724 91.252 85.6844 90.256 87.4364 89.08C89.2124 87.904 90.1004 86.932 90.1004 86.164C90.1004 85.324 88.4204 84.904 85.0604 84.904C82.9244 84.904 80.8124 85.144 78.7244 85.624C76.6604 86.08 74.8844 86.644 73.3964 87.316C71.9324 87.964 70.6124 88.648 69.4364 89.368C68.2604 90.088 67.3844 90.712 66.8084 91.24C66.2324 91.768 65.9444 92.104 65.9444 92.248C65.9444 92.392 66.0044 92.464 66.1244 92.464C66.8924 92.464 68.1524 92.056 69.9044 91.24C71.6804 90.4 72.7604 89.848 73.1444 89.584C73.5284 89.296 73.7684 89.152 73.8644 89.152C73.9844 89.152 74.0804 89.212 74.1524 89.332C73.2644 90.796 72.0404 92.044 70.4804 93.076C68.9444 94.084 67.7444 94.588 66.8804 94.588C66.0164 94.588 65.2964 94.24 64.7204 93.544C64.1684 92.824 63.8924 92.2 63.8924 91.672C63.8924 90.064 65.0564 88.468 67.3844 86.884ZM87.0044 95.38C87.0044 95.14 86.8484 94.948 86.5364 94.804C86.2484 94.66 85.9484 94.576 85.6364 94.552H85.1684C83.6564 94.552 81.7364 94.888 79.4084 95.56C78.6164 95.776 78.1244 95.884 77.9324 95.884C77.7404 95.884 77.5724 95.812 77.4284 95.668C77.3084 95.524 77.2124 95.392 77.1404 95.272C77.0924 95.128 77.0084 95.056 76.8884 95.056C76.7444 95.056 76.5884 95.14 76.4204 95.308L70.1924 103.624V103.66C70.3124 103.876 70.5524 103.984 70.9124 103.984H71.3444C73.1444 103.984 75.2924 103.492 77.7884 102.508C80.2844 101.5 82.4444 100.312 84.2684 98.944C86.0924 97.552 87.0044 96.364 87.0044 95.38ZM101.226 88.18C101.466 88.18 101.622 88.228 101.694 88.324C102.03 88.732 102.198 89.068 102.198 89.332C102.198 89.572 102.126 89.788 101.982 89.98C101.838 90.148 101.658 90.352 101.442 90.592C101.25 90.808 100.842 91.12 100.218 91.528C99.6178 91.912 99.0298 92.104 98.4538 92.104C98.0218 92.032 97.8058 91.768 97.8058 91.312C97.8058 90.592 98.2378 89.896 99.1018 89.224C99.9658 88.528 100.674 88.18 101.226 88.18ZM92.5858 102.364C92.3938 102.7 92.2978 103 92.2978 103.264C92.2978 103.528 92.4418 103.66 92.7298 103.66C92.8978 103.66 93.1858 103.588 93.5938 103.444C98.0818 101.092 102.474 98.32 106.77 95.128C106.986 95.296 107.094 95.5 107.094 95.74C107.094 95.98 106.974 96.208 106.734 96.424C106.494 96.64 106.146 96.952 105.69 97.36C105.258 97.768 104.418 98.5 103.17 99.556C101.922 100.612 100.758 101.572 99.6778 102.436C96.8458 104.716 94.7578 106.06 93.4138 106.468C92.9818 106.588 92.5138 106.648 92.0098 106.648C90.1618 106.648 89.2378 105.664 89.2378 103.696C89.2378 102.928 89.6578 101.836 90.4978 100.42C91.3378 98.98 92.2018 97.72 93.0898 96.64C93.9778 95.536 94.5658 94.924 94.8538 94.804C95.2858 94.54 95.7538 94.408 96.2578 94.408C96.7618 94.408 97.2418 94.504 97.6978 94.696C97.8418 94.768 97.9138 94.864 97.9138 94.984C97.9138 95.104 97.7938 95.284 97.5538 95.524C97.3378 95.764 96.9898 96.136 96.5098 96.64C96.0538 97.144 95.3578 98.02 94.4218 99.268C93.5098 100.492 92.8978 101.524 92.5858 102.364ZM110.075 96.64L109.931 96.676C107.723 97.108 106.499 97.324 106.259 97.324C106.043 97.324 105.827 97.216 105.611 97C104.939 96.04 104.603 95.392 104.603 95.056C104.603 94.696 104.795 94.468 105.179 94.372C107.267 93.916 108.983 93.688 110.327 93.688C111.695 93.688 112.523 93.844 112.811 94.156C113.699 95.044 114.143 95.584 114.143 95.776C114.143 95.968 114.023 96.136 113.783 96.28C111.911 97.264 109.979 98.416 107.987 99.736C106.019 101.032 104.675 102.076 103.955 102.868C103.955 102.892 104.015 102.904 104.135 102.904C104.279 102.904 104.807 102.772 105.719 102.508C106.655 102.22 107.507 102.076 108.275 102.076C109.043 102.076 109.559 102.208 109.823 102.472C111.047 103.888 111.659 104.848 111.659 105.352C111.659 105.544 111.563 105.64 111.371 105.64C111.251 105.64 111.035 105.532 110.723 105.316C110.435 105.1 110.075 104.992 109.643 104.992C109.211 104.992 108.851 105.04 108.563 105.136C105.779 105.952 103.547 106.36 101.867 106.36C101.603 106.36 101.231 106.12 100.751 105.64C100.271 105.136 100.031 104.644 100.031 104.164C100.031 103.396 100.559 102.604 101.615 101.788C102.671 100.948 104.183 100 106.151 98.944C108.479 97.696 109.787 96.928 110.075 96.64Z" fill="#672C67"/>
<defs>
<linearGradient id="paint0_linear_54_1291" x1="79.8544" y1="23.61" x2="43.5264" y2="59.938" gradientUnits="userSpaceOnUse">
<stop stop-color="#672C67"/>
<stop offset="1" stop-color="white"/>
</linearGradient>
<linearGradient id="paint1_linear_54_1291" x1="21.2411" y1="81.7638" x2="70.8243" y2="32.1805" gradientUnits="userSpaceOnUse">
<stop stop-color="#672C67"/>
<stop offset="1" stop-color="white"/>
</linearGradient>
<linearGradient id="paint2_linear_54_1291" x1="58.3922" y1="7.61405" x2="64.0766" y2="32.7334" gradientUnits="userSpaceOnUse">
<stop stop-color="#672C67"/>
<stop offset="0.630208" stop-color="#FEFEFF"/>
</linearGradient>
</defs>
</svg>
