<svg width="128" height="43" viewBox="0 0 128 43" fill="none" xmlns="http://www.w3.org/2000/svg">
<path d="M0.96 13.16C0.96 12.3333 1.28 11.5333 1.92 10.76C2.56 9.98667 3.26667 9.24 4.04 8.52C4.81333 7.8 5.94667 6.94667 7.44 5.96C8.96 4.94667 10.5733 4.05333 12.28 3.28C13.9867 2.48 16.08 1.8 18.56 1.24C21.04 0.679998 23.6 0.399998 26.24 0.399998C28.5333 0.399998 30.8133 0.839998 33.08 1.72C34.2267 2.17333 35.16 2.84 35.88 3.72C36.6267 4.57333 37 5.57333 37 6.72C37 8.50667 35.92 10.2933 33.76 12.08C31.6 13.8667 27.8267 15.8533 22.44 18.04C21.9067 18.1733 21.64 18.36 21.64 18.6C21.64 18.68 21.6933 18.7733 21.8 18.88C25.5867 23.2533 28.7067 26.3067 31.16 28.04C31.4533 28.28 31.6 28.52 31.6 28.76C31.6 29.3467 30.7333 29.64 29 29.64C27.2667 29.64 25.8267 29.08 24.68 27.96C19.8267 22.8133 16.7733 19.3733 15.52 17.64C15.4933 17.5333 15.44 17.48 15.36 17.48C15.3067 17.48 15.24 17.5333 15.16 17.64C10.84 22.9467 8.34667 26.4267 7.68 28.08C7.68 28.5067 7.6 28.72 7.44 28.72C7.30667 28.72 7.08 28.64 6.76 28.48C6.44 28.32 6.10667 28.0133 5.76 27.56C5.41333 27.1067 5.24 26.56 5.24 25.92C5.24 25.2533 5.50667 24.44 6.04 23.48C9.82667 17.9867 13.8267 13.3733 18.04 9.64C19.8267 8.06667 21.5067 6.84 23.08 5.96C23.32 5.74667 23.5333 5.64 23.72 5.64C23.9333 5.64 24.1733 5.73333 24.44 5.92C24.7333 6.10667 24.88 6.33333 24.88 6.6C24.88 6.84 24.7733 7.05333 24.56 7.24C21.0667 10.76 18.6667 13.3867 17.36 15.12C17.0133 15.4933 16.84 15.7467 16.84 15.88C16.84 16.0133 16.9067 16.08 17.04 16.08H17.2C20.4 15.2 22.9867 14.32 24.96 13.44C29.1467 11.5467 32.32 9.54667 34.48 7.44C34.9333 7.01333 35.16 6.6 35.16 6.2C35.16 5.58667 34.64 5.12 33.6 4.8C32.5867 4.48 30.96 4.32 28.72 4.32C26.5067 4.32 23.7867 4.65333 20.56 5.32C17.3333 5.98666 14.12 7.06666 10.92 8.56C7.72 10.0267 5.34667 11.7333 3.8 13.68C3.58667 13.92 3.48 14.0933 3.48 14.2C3.48 14.28 3.62667 14.32 3.92 14.32C4.21333 14.32 5.12 13.9867 6.64 13.32C8.18667 12.6533 9.50667 12 10.6 11.36C12.3067 10.2133 13.3733 9.64 13.8 9.64C13.96 9.64 14.04 9.68 14.04 9.76C14.04 9.81333 13.8667 10.04 13.52 10.44C13.2 10.84 12.7333 11.3467 12.12 11.96C11.5333 12.5733 10.8 13.2533 9.92 14C7.92 15.7333 6.08 16.6 4.4 16.6C3.49333 16.6 2.76 16.32 2.2 15.76C1.61333 15.1733 1.26667 14.5867 1.16 14L0.96 13.16ZM33.0144 26.24C33.8677 26.24 34.921 25.68 36.1744 24.56C37.4277 23.44 38.081 22.6667 38.1344 22.24C37.8144 21.9733 37.4677 21.4933 37.0944 20.8C36.7477 20.08 36.561 19.72 36.5344 19.72C35.7077 20.4933 34.9744 21.3867 34.3344 22.4C33.321 24.1067 32.8144 25.28 32.8144 25.92C32.8144 26.1333 32.881 26.24 33.0144 26.24ZM41.6544 16.44C41.3877 16.44 40.8277 16.8533 39.9744 17.68C39.1477 18.5067 38.7344 19.08 38.7344 19.4C38.7344 19.48 38.8144 19.64 38.9744 19.88C39.1344 20.12 39.2544 20.24 39.3344 20.24C39.7877 20.24 40.2944 19.6933 40.8544 18.6C41.441 17.5067 41.7344 16.88 41.7344 16.72C41.7344 16.5333 41.7077 16.44 41.6544 16.44ZM41.7344 21.6C42.481 21.6 43.641 21.1467 45.2144 20.24C46.8144 19.3333 48.2144 18.4267 49.4144 17.52L51.2144 16.12C51.4544 16.3067 51.5744 16.5333 51.5744 16.8C51.5744 17.0667 51.4544 17.3067 51.2144 17.52C46.8144 21.6 43.481 23.64 41.2144 23.64C41.0544 23.64 40.8144 23.6133 40.4944 23.56C37.481 27.0533 34.8944 28.8 32.7344 28.8C31.2944 28.5867 30.3877 28.08 30.0144 27.28C29.801 26.88 29.6944 26.3733 29.6944 25.76C29.6944 24 30.7077 21.9067 32.7344 19.48C34.761 17.0267 37.3077 15.2267 40.3744 14.08C40.641 14.08 40.841 14.1467 40.9744 14.28C41.1077 14.3867 41.2277 14.4533 41.3344 14.48C41.441 14.48 41.5744 14.4267 41.7344 14.32C41.921 14.1867 42.161 14.12 42.4544 14.12C42.7477 14.0933 43.0544 14.2533 43.3744 14.6C43.801 14.9467 44.0144 15.3733 44.0144 15.88C44.0144 17.3733 43.2544 19.28 41.7344 21.6ZM59.0194 15.08C60.2727 15.2133 60.8994 15.4933 60.8994 15.92C60.8994 16.1067 60.7927 16.32 60.5794 16.56C56.8194 20.7467 52.4994 26.08 47.6194 32.56C46.206 34.48 44.766 36.2933 43.2994 38C41.8327 39.7067 40.4594 40.9467 39.1794 41.72C37.8994 42.52 36.566 42.92 35.1794 42.92C34.486 42.92 33.8727 42.7333 33.3394 42.36C32.806 41.9867 32.5394 41.48 32.5394 40.84C32.5394 39.3467 33.2594 37.8 34.6994 36.2C36.1394 34.6 37.7527 33.2933 39.5394 32.28C41.326 31.2933 42.8727 30.72 44.1794 30.56L45.0194 30.68C45.286 30.6533 46.2594 29.6267 47.9394 27.6C49.646 25.5733 50.4994 24.5067 50.4994 24.4C50.526 24.2667 50.5127 24.2 50.4594 24.2L49.6994 24.8C47.6994 26.6667 46.1394 27.6 45.0194 27.6C44.2994 27.6 43.9394 27.0933 43.9394 26.08C43.9394 24.72 45.046 22.5733 47.2594 19.64C49.4727 16.7067 51.0994 15.24 52.1394 15.24C52.2194 15.24 52.3127 15.2667 52.4194 15.32C53.166 15.5067 53.5394 15.7733 53.5394 16.12C53.5394 16.2533 53.4994 16.36 53.4194 16.44C53.366 16.4933 53.0994 16.7467 52.6194 17.2C52.166 17.6533 51.7127 18.1333 51.2594 18.64C50.806 19.12 50.326 19.6533 49.8194 20.24C48.6727 21.5733 48.0994 22.5733 48.0994 23.24C48.0994 23.4 48.1794 23.48 48.3394 23.48C48.526 23.48 48.8594 23.3333 49.3394 23.04C53.126 20.4533 56.086 17.9867 58.2194 15.64C58.406 15.2667 58.6727 15.08 59.0194 15.08ZM34.6194 41.16C35.5527 40.8667 36.806 39.9467 38.3794 38.4C39.9527 36.88 41.2994 35.44 42.4194 34.08L44.0994 32C44.2594 31.7867 44.3394 31.6533 44.3394 31.6C44.3394 31.5467 44.2994 31.52 44.2194 31.52C43.366 31.52 42.1527 32.1733 40.5794 33.48C38.9794 34.7867 37.566 36.2133 36.3394 37.76C35.086 39.3067 34.4594 40.4 34.4594 41.04C34.4594 41.12 34.5127 41.16 34.6194 41.16ZM64.1434 26.32L64.4634 23.76C64.4634 23.68 64.4368 23.64 64.3834 23.64C64.3568 23.64 64.2901 23.6933 64.1834 23.8C63.8368 24.1733 63.3968 24.64 62.8634 25.2C62.3301 25.7333 61.4101 26.4667 60.1034 27.4C58.8234 28.3067 57.7834 28.76 56.9834 28.76C56.8501 28.7333 56.6901 28.68 56.5034 28.6C56.2901 28.5467 56.0234 28.3333 55.7034 27.96C55.3834 27.5867 55.2234 27.0533 55.2234 26.36C55.2234 25.6667 55.7568 24.6133 56.8234 23.2C57.8634 21.76 59.1168 20.36 60.5834 19C62.0501 17.6133 63.6768 16.4133 65.4634 15.4C67.2768 14.3867 68.8501 13.88 70.1834 13.88C70.6901 13.9067 71.0901 14.2667 71.3834 14.96C71.6501 14.6933 71.8901 14.56 72.1034 14.56C72.3168 14.56 72.5701 14.72 72.8634 15.04C73.0234 15.0667 73.1834 15.16 73.3434 15.32C73.5034 15.4533 73.5834 15.6533 73.5834 15.92C73.5834 16.1867 73.3968 16.48 73.0234 16.8C72.4634 17.4933 71.8101 18.28 71.0634 19.16C70.3168 20.04 69.7834 20.68 69.4634 21.08C69.1434 21.4533 68.8101 21.88 68.4634 22.36C67.8768 23.1867 67.5568 23.8533 67.5034 24.36C70.2234 23.0533 74.5034 20.24 80.3434 15.92C80.5834 16.1067 80.7034 16.3333 80.7034 16.6C80.7034 16.8667 80.5968 17.0933 80.3834 17.28C80.1701 17.4667 79.9034 17.6933 79.5834 17.96C79.2901 18.2267 78.6901 18.7467 77.7834 19.52C76.8768 20.2933 75.9968 21.04 75.1434 21.76C74.3168 22.4533 73.3568 23.24 72.2634 24.12C71.1968 24.9733 70.2368 25.7067 69.3834 26.32C67.3301 27.7867 66.0501 28.52 65.5434 28.52C65.0368 28.52 64.6768 28.36 64.4634 28.04C64.2501 27.72 64.1434 27.1467 64.1434 26.32ZM60.0634 24.64C60.3834 24.64 61.3568 23.9867 62.9834 22.68C64.6368 21.3733 66.1968 20.0667 67.6634 18.76L69.9034 16.8C70.0101 16.6933 70.0634 16.6267 70.0634 16.6C70.0634 16.5467 70.0234 16.52 69.9434 16.52C68.9301 16.52 67.6101 17.1067 65.9834 18.28C64.3568 19.4267 62.9434 20.6533 61.7434 21.96C60.5701 23.24 59.9834 24.1067 59.9834 24.56C59.9834 24.6133 60.0101 24.64 60.0634 24.64ZM75.6494 6.76C78.236 4.97333 81.1827 3.56 84.4894 2.52C87.796 1.48 90.5294 0.959998 92.6894 0.959998C94.8494 0.959998 96.5827 1.2 97.8894 1.68C99.2227 2.13333 100.183 2.72 100.769 3.44C101.756 4.66667 102.249 5.73333 102.249 6.64C102.249 7.73333 101.489 9.01333 99.9694 10.48C99.196 11.2267 98.1027 12.0533 96.6894 12.96L96.2494 13.2C96.0627 13.2533 95.9694 13.3333 95.9694 13.44L96.2094 13.64C97.2494 14.0667 98.036 14.5733 98.5694 15.16C99.1294 15.7467 99.4094 16.6133 99.4094 17.76C99.4094 19.3333 98.7027 20.84 97.2894 22.28C95.9027 23.6933 94.2627 24.84 92.3694 25.72C90.476 26.5733 88.7027 27.2533 87.0494 27.76C85.396 28.2667 84.2094 28.52 83.4894 28.52C82.796 28.52 82.1694 28.4267 81.6094 28.24C81.0494 28.08 80.596 27.88 80.2494 27.64C79.5294 27.1333 79.0227 26.6133 78.7294 26.08C78.6227 25.9467 78.5294 25.88 78.4494 25.88C78.2627 25.88 77.916 26.4667 77.4094 27.64C76.9027 28.8133 76.636 29.4 76.6094 29.4V29.36C76.5294 29.6267 76.396 29.76 76.2094 29.76C75.7827 29.76 75.3694 29.36 74.9694 28.56C74.596 27.7867 74.4094 27.1867 74.4094 26.76C74.4094 26.3067 74.676 25.56 75.2094 24.52C75.7427 23.4533 76.276 22.5467 76.8094 21.8L77.6094 20.68C78.2227 19.3467 80.756 16.56 85.2094 12.32C89.6627 8.08 92.1827 5.96 92.7694 5.96C93.036 5.96 93.2494 6.05333 93.4094 6.24C93.596 6.4 93.7427 6.65333 93.8494 7C93.8494 7.21333 93.7294 7.38667 93.4894 7.52L87.8494 13.6C87.796 13.7067 87.7694 13.7867 87.7694 13.84C87.7694 13.8667 87.8094 13.88 87.8894 13.88C88.476 13.88 89.8094 13.4267 91.8894 12.52C93.9694 11.6133 95.9827 10.5067 97.9294 9.2C99.9027 7.89333 100.889 6.81333 100.889 5.96C100.889 5.02667 99.0227 4.56 95.2894 4.56C92.916 4.56 90.5694 4.82667 88.2494 5.36C85.956 5.86666 83.9827 6.49333 82.3294 7.24C80.7027 7.96 79.236 8.72 77.9294 9.52C76.6227 10.32 75.6494 11.0133 75.0094 11.6C74.3694 12.1867 74.0494 12.56 74.0494 12.72C74.0494 12.88 74.116 12.96 74.2494 12.96C75.1027 12.96 76.5027 12.5067 78.4494 11.6C80.4227 10.6667 81.6227 10.0533 82.0494 9.76C82.476 9.44 82.7427 9.28 82.8494 9.28C82.9827 9.28 83.0894 9.34667 83.1694 9.48C82.1827 11.1067 80.8227 12.4933 79.0894 13.64C77.3827 14.76 76.0494 15.32 75.0894 15.32C74.1294 15.32 73.3294 14.9333 72.6894 14.16C72.076 13.36 71.7694 12.6667 71.7694 12.08C71.7694 10.2933 73.0627 8.52 75.6494 6.76ZM97.4494 16.2C97.4494 15.9333 97.276 15.72 96.9294 15.56C96.6094 15.4 96.276 15.3067 95.9294 15.28H95.4094C93.7294 15.28 91.596 15.6533 89.0094 16.4C88.1294 16.64 87.5827 16.76 87.3694 16.76C87.156 16.76 86.9694 16.68 86.8094 16.52C86.676 16.36 86.5694 16.2133 86.4894 16.08C86.436 15.92 86.3427 15.84 86.2094 15.84C86.0494 15.84 85.876 15.9333 85.6894 16.12L78.7694 25.36V25.4C78.9027 25.64 79.1694 25.76 79.5694 25.76H80.0494C82.0494 25.76 84.436 25.2133 87.2094 24.12C89.9827 23 92.3827 21.68 94.4094 20.16C96.436 18.6133 97.4494 17.2933 97.4494 16.2ZM113.251 8.2C113.518 8.2 113.691 8.25333 113.771 8.36C114.144 8.81333 114.331 9.18667 114.331 9.48C114.331 9.74667 114.251 9.98667 114.091 10.2C113.931 10.3867 113.731 10.6133 113.491 10.88C113.278 11.12 112.824 11.4667 112.131 11.92C111.464 12.3467 110.811 12.56 110.171 12.56C109.691 12.48 109.451 12.1867 109.451 11.68C109.451 10.88 109.931 10.1067 110.891 9.36C111.851 8.58667 112.638 8.2 113.251 8.2ZM103.651 23.96C103.438 24.3333 103.331 24.6667 103.331 24.96C103.331 25.2533 103.491 25.4 103.811 25.4C103.998 25.4 104.318 25.32 104.771 25.16C109.758 22.5467 114.638 19.4667 119.411 15.92C119.651 16.1067 119.771 16.3333 119.771 16.6C119.771 16.8667 119.638 17.12 119.371 17.36C119.104 17.6 118.718 17.9467 118.211 18.4C117.731 18.8533 116.798 19.6667 115.411 20.84C114.024 22.0133 112.731 23.08 111.531 24.04C108.384 26.5733 106.064 28.0667 104.571 28.52C104.091 28.6533 103.571 28.72 103.011 28.72C100.958 28.72 99.9309 27.6267 99.9309 25.44C99.9309 24.5867 100.398 23.3733 101.331 21.8C102.264 20.2 103.224 18.8 104.211 17.6C105.198 16.3733 105.851 15.6933 106.171 15.56C106.651 15.2667 107.171 15.12 107.731 15.12C108.291 15.12 108.824 15.2267 109.331 15.44C109.491 15.52 109.571 15.6267 109.571 15.76C109.571 15.8933 109.438 16.0933 109.171 16.36C108.931 16.6267 108.544 17.04 108.011 17.6C107.504 18.16 106.731 19.1333 105.691 20.52C104.678 21.88 103.998 23.0267 103.651 23.96ZM123.083 17.6L122.923 17.64C120.47 18.12 119.11 18.36 118.843 18.36C118.603 18.36 118.363 18.24 118.123 18C117.376 16.9333 117.003 16.2133 117.003 15.84C117.003 15.44 117.216 15.1867 117.643 15.08C119.963 14.5733 121.87 14.32 123.363 14.32C124.883 14.32 125.803 14.4933 126.123 14.84C127.11 15.8267 127.603 16.4267 127.603 16.64C127.603 16.8533 127.47 17.04 127.203 17.2C125.123 18.2933 122.976 19.5733 120.763 21.04C118.576 22.48 117.083 23.64 116.283 24.52C116.283 24.5467 116.35 24.56 116.483 24.56C116.643 24.56 117.23 24.4133 118.243 24.12C119.283 23.8 120.23 23.64 121.083 23.64C121.936 23.64 122.51 23.7867 122.803 24.08C124.163 25.6533 124.843 26.72 124.843 27.28C124.843 27.4933 124.736 27.6 124.523 27.6C124.39 27.6 124.15 27.48 123.803 27.24C123.483 27 123.083 26.88 122.603 26.88C122.123 26.88 121.723 26.9333 121.403 27.04C118.31 27.9467 115.83 28.4 113.963 28.4C113.67 28.4 113.256 28.1333 112.723 27.6C112.19 27.04 111.923 26.4933 111.923 25.96C111.923 25.1067 112.51 24.2267 113.683 23.32C114.856 22.3867 116.536 21.3333 118.723 20.16C121.31 18.7733 122.763 17.92 123.083 17.6Z" fill="#672C67"/>
</svg>
