<svg width="128" height="56" viewBox="0 0 128 56" fill="none" xmlns="http://www.w3.org/2000/svg">
<path d="M0.96 24.16C0.96 23.3333 1.28 22.5333 1.92 21.76C2.56 20.9867 3.26667 20.24 4.04 19.52C4.81333 18.8 5.94667 17.9467 7.44 16.96C8.96 15.9467 10.5733 15.0533 12.28 14.28C13.9867 13.48 16.08 12.8 18.56 12.24C21.04 11.68 23.6 11.4 26.24 11.4C28.5333 11.4 30.8133 11.84 33.08 12.72C34.2267 13.1733 35.16 13.84 35.88 14.72C36.6267 15.5733 37 16.5733 37 17.72C37 19.5067 35.92 21.2933 33.76 23.08C31.6 24.8667 27.8267 26.8533 22.44 29.04C21.9067 29.1733 21.64 29.36 21.64 29.6C21.64 29.68 21.6933 29.7733 21.8 29.88C25.5867 34.2533 28.7067 37.3067 31.16 39.04C31.4533 39.28 31.6 39.52 31.6 39.76C31.6 40.3467 30.7333 40.64 29 40.64C27.2667 40.64 25.8267 40.08 24.68 38.96C19.8267 33.8133 16.7733 30.3733 15.52 28.64C15.4933 28.5333 15.44 28.48 15.36 28.48C15.3067 28.48 15.24 28.5333 15.16 28.64C10.84 33.9467 8.34667 37.4267 7.68 39.08C7.68 39.5067 7.6 39.72 7.44 39.72C7.30667 39.72 7.08 39.64 6.76 39.48C6.44 39.32 6.10667 39.0133 5.76 38.56C5.41333 38.1067 5.24 37.56 5.24 36.92C5.24 36.2533 5.50667 35.44 6.04 34.48C9.82667 28.9867 13.8267 24.3733 18.04 20.64C19.8267 19.0667 21.5067 17.84 23.08 16.96C23.32 16.7467 23.5333 16.64 23.72 16.64C23.9333 16.64 24.1733 16.7333 24.44 16.92C24.7333 17.1067 24.88 17.3333 24.88 17.6C24.88 17.84 24.7733 18.0533 24.56 18.24C21.0667 21.76 18.6667 24.3867 17.36 26.12C17.0133 26.4933 16.84 26.7467 16.84 26.88C16.84 27.0133 16.9067 27.08 17.04 27.08H17.2C20.4 26.2 22.9867 25.32 24.96 24.44C29.1467 22.5467 32.32 20.5467 34.48 18.44C34.9333 18.0133 35.16 17.6 35.16 17.2C35.16 16.5867 34.64 16.12 33.6 15.8C32.5867 15.48 30.96 15.32 28.72 15.32C26.5067 15.32 23.7867 15.6533 20.56 16.32C17.3333 16.9867 14.12 18.0667 10.92 19.56C7.72 21.0267 5.34667 22.7333 3.8 24.68C3.58667 24.92 3.48 25.0933 3.48 25.2C3.48 25.28 3.62667 25.32 3.92 25.32C4.21333 25.32 5.12 24.9867 6.64 24.32C8.18667 23.6533 9.50667 23 10.6 22.36C12.3067 21.2133 13.3733 20.64 13.8 20.64C13.96 20.64 14.04 20.68 14.04 20.76C14.04 20.8133 13.8667 21.04 13.52 21.44C13.2 21.84 12.7333 22.3467 12.12 22.96C11.5333 23.5733 10.8 24.2533 9.92 25C7.92 26.7333 6.08 27.6 4.4 27.6C3.49333 27.6 2.76 27.32 2.2 26.76C1.61333 26.1733 1.26667 25.5867 1.16 25L0.96 24.16ZM33.0144 37.24C33.8677 37.24 34.921 36.68 36.1744 35.56C37.4277 34.44 38.081 33.6667 38.1344 33.24C37.8144 32.9733 37.4677 32.4933 37.0944 31.8C36.7477 31.08 36.561 30.72 36.5344 30.72C35.7077 31.4933 34.9744 32.3867 34.3344 33.4C33.321 35.1067 32.8144 36.28 32.8144 36.92C32.8144 37.1333 32.881 37.24 33.0144 37.24ZM41.6544 27.44C41.3877 27.44 40.8277 27.8533 39.9744 28.68C39.1477 29.5067 38.7344 30.08 38.7344 30.4C38.7344 30.48 38.8144 30.64 38.9744 30.88C39.1344 31.12 39.2544 31.24 39.3344 31.24C39.7877 31.24 40.2944 30.6933 40.8544 29.6C41.441 28.5067 41.7344 27.88 41.7344 27.72C41.7344 27.5333 41.7077 27.44 41.6544 27.44ZM41.7344 32.6C42.481 32.6 43.641 32.1467 45.2144 31.24C46.8144 30.3333 48.2144 29.4267 49.4144 28.52L51.2144 27.12C51.4544 27.3067 51.5744 27.5333 51.5744 27.8C51.5744 28.0667 51.4544 28.3067 51.2144 28.52C46.8144 32.6 43.481 34.64 41.2144 34.64C41.0544 34.64 40.8144 34.6133 40.4944 34.56C37.481 38.0533 34.8944 39.8 32.7344 39.8C31.2944 39.5867 30.3877 39.08 30.0144 38.28C29.801 37.88 29.6944 37.3733 29.6944 36.76C29.6944 35 30.7077 32.9067 32.7344 30.48C34.761 28.0267 37.3077 26.2267 40.3744 25.08C40.641 25.08 40.841 25.1467 40.9744 25.28C41.1077 25.3867 41.2277 25.4533 41.3344 25.48C41.441 25.48 41.5744 25.4267 41.7344 25.32C41.921 25.1867 42.161 25.12 42.4544 25.12C42.7477 25.0933 43.0544 25.2533 43.3744 25.6C43.801 25.9467 44.0144 26.3733 44.0144 26.88C44.0144 28.3733 43.2544 30.28 41.7344 32.6ZM59.0194 26.08C60.2727 26.2133 60.8994 26.4933 60.8994 26.92C60.8994 27.1067 60.7927 27.32 60.5794 27.56C56.8194 31.7467 52.4994 37.08 47.6194 43.56C46.206 45.48 44.766 47.2933 43.2994 49C41.8327 50.7067 40.4594 51.9467 39.1794 52.72C37.8994 53.52 36.566 53.92 35.1794 53.92C34.486 53.92 33.8727 53.7333 33.3394 53.36C32.806 52.9867 32.5394 52.48 32.5394 51.84C32.5394 50.3467 33.2594 48.8 34.6994 47.2C36.1394 45.6 37.7527 44.2933 39.5394 43.28C41.326 42.2933 42.8727 41.72 44.1794 41.56L45.0194 41.68C45.286 41.6533 46.2594 40.6267 47.9394 38.6C49.646 36.5733 50.4994 35.5067 50.4994 35.4C50.526 35.2667 50.5127 35.2 50.4594 35.2L49.6994 35.8C47.6994 37.6667 46.1394 38.6 45.0194 38.6C44.2994 38.6 43.9394 38.0933 43.9394 37.08C43.9394 35.72 45.046 33.5733 47.2594 30.64C49.4727 27.7067 51.0994 26.24 52.1394 26.24C52.2194 26.24 52.3127 26.2667 52.4194 26.32C53.166 26.5067 53.5394 26.7733 53.5394 27.12C53.5394 27.2533 53.4994 27.36 53.4194 27.44C53.366 27.4933 53.0994 27.7467 52.6194 28.2C52.166 28.6533 51.7127 29.1333 51.2594 29.64C50.806 30.12 50.326 30.6533 49.8194 31.24C48.6727 32.5733 48.0994 33.5733 48.0994 34.24C48.0994 34.4 48.1794 34.48 48.3394 34.48C48.526 34.48 48.8594 34.3333 49.3394 34.04C53.126 31.4533 56.086 28.9867 58.2194 26.64C58.406 26.2667 58.6727 26.08 59.0194 26.08ZM34.6194 52.16C35.5527 51.8667 36.806 50.9467 38.3794 49.4C39.9527 47.88 41.2994 46.44 42.4194 45.08L44.0994 43C44.2594 42.7867 44.3394 42.6533 44.3394 42.6C44.3394 42.5467 44.2994 42.52 44.2194 42.52C43.366 42.52 42.1527 43.1733 40.5794 44.48C38.9794 45.7867 37.566 47.2133 36.3394 48.76C35.086 50.3067 34.4594 51.4 34.4594 52.04C34.4594 52.12 34.5127 52.16 34.6194 52.16ZM64.1434 37.32L64.4634 34.76C64.4634 34.68 64.4368 34.64 64.3834 34.64C64.3568 34.64 64.2901 34.6933 64.1834 34.8C63.8368 35.1733 63.3968 35.64 62.8634 36.2C62.3301 36.7333 61.4101 37.4667 60.1034 38.4C58.8234 39.3067 57.7834 39.76 56.9834 39.76C56.8501 39.7333 56.6901 39.68 56.5034 39.6C56.2901 39.5467 56.0234 39.3333 55.7034 38.96C55.3834 38.5867 55.2234 38.0533 55.2234 37.36C55.2234 36.6667 55.7568 35.6133 56.8234 34.2C57.8634 32.76 59.1168 31.36 60.5834 30C62.0501 28.6133 63.6768 27.4133 65.4634 26.4C67.2768 25.3867 68.8501 24.88 70.1834 24.88C70.6901 24.9067 71.0901 25.2667 71.3834 25.96C71.6501 25.6933 71.8901 25.56 72.1034 25.56C72.3168 25.56 72.5701 25.72 72.8634 26.04C73.0234 26.0667 73.1834 26.16 73.3434 26.32C73.5034 26.4533 73.5834 26.6533 73.5834 26.92C73.5834 27.1867 73.3968 27.48 73.0234 27.8C72.4634 28.4933 71.8101 29.28 71.0634 30.16C70.3168 31.04 69.7834 31.68 69.4634 32.08C69.1434 32.4533 68.8101 32.88 68.4634 33.36C67.8768 34.1867 67.5568 34.8533 67.5034 35.36C70.2234 34.0533 74.5034 31.24 80.3434 26.92C80.5834 27.1067 80.7034 27.3333 80.7034 27.6C80.7034 27.8667 80.5968 28.0933 80.3834 28.28C80.1701 28.4667 79.9034 28.6933 79.5834 28.96C79.2901 29.2267 78.6901 29.7467 77.7834 30.52C76.8768 31.2933 75.9968 32.04 75.1434 32.76C74.3168 33.4533 73.3568 34.24 72.2634 35.12C71.1968 35.9733 70.2368 36.7067 69.3834 37.32C67.3301 38.7867 66.0501 39.52 65.5434 39.52C65.0368 39.52 64.6768 39.36 64.4634 39.04C64.2501 38.72 64.1434 38.1467 64.1434 37.32ZM60.0634 35.64C60.3834 35.64 61.3568 34.9867 62.9834 33.68C64.6368 32.3733 66.1968 31.0667 67.6634 29.76L69.9034 27.8C70.0101 27.6933 70.0634 27.6267 70.0634 27.6C70.0634 27.5467 70.0234 27.52 69.9434 27.52C68.9301 27.52 67.6101 28.1067 65.9834 29.28C64.3568 30.4267 62.9434 31.6533 61.7434 32.96C60.5701 34.24 59.9834 35.1067 59.9834 35.56C59.9834 35.6133 60.0101 35.64 60.0634 35.64ZM75.6494 17.76C78.236 15.9733 81.1827 14.56 84.4894 13.52C87.796 12.48 90.5294 11.96 92.6894 11.96C94.8494 11.96 96.5827 12.2 97.8894 12.68C99.2227 13.1333 100.183 13.72 100.769 14.44C101.756 15.6667 102.249 16.7333 102.249 17.64C102.249 18.7333 101.489 20.0133 99.9694 21.48C99.196 22.2267 98.1027 23.0533 96.6894 23.96L96.2494 24.2C96.0627 24.2533 95.9694 24.3333 95.9694 24.44L96.2094 24.64C97.2494 25.0667 98.036 25.5733 98.5694 26.16C99.1294 26.7467 99.4094 27.6133 99.4094 28.76C99.4094 30.3333 98.7027 31.84 97.2894 33.28C95.9027 34.6933 94.2627 35.84 92.3694 36.72C90.476 37.5733 88.7027 38.2533 87.0494 38.76C85.396 39.2667 84.2094 39.52 83.4894 39.52C82.796 39.52 82.1694 39.4267 81.6094 39.24C81.0494 39.08 80.596 38.88 80.2494 38.64C79.5294 38.1333 79.0227 37.6133 78.7294 37.08C78.6227 36.9467 78.5294 36.88 78.4494 36.88C78.2627 36.88 77.916 37.4667 77.4094 38.64C76.9027 39.8133 76.636 40.4 76.6094 40.4V40.36C76.5294 40.6267 76.396 40.76 76.2094 40.76C75.7827 40.76 75.3694 40.36 74.9694 39.56C74.596 38.7867 74.4094 38.1867 74.4094 37.76C74.4094 37.3067 74.676 36.56 75.2094 35.52C75.7427 34.4533 76.276 33.5467 76.8094 32.8L77.6094 31.68C78.2227 30.3467 80.756 27.56 85.2094 23.32C89.6627 19.08 92.1827 16.96 92.7694 16.96C93.036 16.96 93.2494 17.0533 93.4094 17.24C93.596 17.4 93.7427 17.6533 93.8494 18C93.8494 18.2133 93.7294 18.3867 93.4894 18.52L87.8494 24.6C87.796 24.7067 87.7694 24.7867 87.7694 24.84C87.7694 24.8667 87.8094 24.88 87.8894 24.88C88.476 24.88 89.8094 24.4267 91.8894 23.52C93.9694 22.6133 95.9827 21.5067 97.9294 20.2C99.9027 18.8933 100.889 17.8133 100.889 16.96C100.889 16.0267 99.0227 15.56 95.2894 15.56C92.916 15.56 90.5694 15.8267 88.2494 16.36C85.956 16.8667 83.9827 17.4933 82.3294 18.24C80.7027 18.96 79.236 19.72 77.9294 20.52C76.6227 21.32 75.6494 22.0133 75.0094 22.6C74.3694 23.1867 74.0494 23.56 74.0494 23.72C74.0494 23.88 74.116 23.96 74.2494 23.96C75.1027 23.96 76.5027 23.5067 78.4494 22.6C80.4227 21.6667 81.6227 21.0533 82.0494 20.76C82.476 20.44 82.7427 20.28 82.8494 20.28C82.9827 20.28 83.0894 20.3467 83.1694 20.48C82.1827 22.1067 80.8227 23.4933 79.0894 24.64C77.3827 25.76 76.0494 26.32 75.0894 26.32C74.1294 26.32 73.3294 25.9333 72.6894 25.16C72.076 24.36 71.7694 23.6667 71.7694 23.08C71.7694 21.2933 73.0627 19.52 75.6494 17.76ZM97.4494 27.2C97.4494 26.9333 97.276 26.72 96.9294 26.56C96.6094 26.4 96.276 26.3067 95.9294 26.28H95.4094C93.7294 26.28 91.596 26.6533 89.0094 27.4C88.1294 27.64 87.5827 27.76 87.3694 27.76C87.156 27.76 86.9694 27.68 86.8094 27.52C86.676 27.36 86.5694 27.2133 86.4894 27.08C86.436 26.92 86.3427 26.84 86.2094 26.84C86.0494 26.84 85.876 26.9333 85.6894 27.12L78.7694 36.36V36.4C78.9027 36.64 79.1694 36.76 79.5694 36.76H80.0494C82.0494 36.76 84.436 36.2133 87.2094 35.12C89.9827 34 92.3827 32.68 94.4094 31.16C96.436 29.6133 97.4494 28.2933 97.4494 27.2ZM113.251 19.2C113.518 19.2 113.691 19.2533 113.771 19.36C114.144 19.8133 114.331 20.1867 114.331 20.48C114.331 20.7467 114.251 20.9867 114.091 21.2C113.931 21.3867 113.731 21.6133 113.491 21.88C113.278 22.12 112.824 22.4667 112.131 22.92C111.464 23.3467 110.811 23.56 110.171 23.56C109.691 23.48 109.451 23.1867 109.451 22.68C109.451 21.88 109.931 21.1067 110.891 20.36C111.851 19.5867 112.638 19.2 113.251 19.2ZM103.651 34.96C103.438 35.3333 103.331 35.6667 103.331 35.96C103.331 36.2533 103.491 36.4 103.811 36.4C103.998 36.4 104.318 36.32 104.771 36.16C109.758 33.5467 114.638 30.4667 119.411 26.92C119.651 27.1067 119.771 27.3333 119.771 27.6C119.771 27.8667 119.638 28.12 119.371 28.36C119.104 28.6 118.718 28.9467 118.211 29.4C117.731 29.8533 116.798 30.6667 115.411 31.84C114.024 33.0133 112.731 34.08 111.531 35.04C108.384 37.5733 106.064 39.0667 104.571 39.52C104.091 39.6533 103.571 39.72 103.011 39.72C100.958 39.72 99.9309 38.6267 99.9309 36.44C99.9309 35.5867 100.398 34.3733 101.331 32.8C102.264 31.2 103.224 29.8 104.211 28.6C105.198 27.3733 105.851 26.6933 106.171 26.56C106.651 26.2667 107.171 26.12 107.731 26.12C108.291 26.12 108.824 26.2267 109.331 26.44C109.491 26.52 109.571 26.6267 109.571 26.76C109.571 26.8933 109.438 27.0933 109.171 27.36C108.931 27.6267 108.544 28.04 108.011 28.6C107.504 29.16 106.731 30.1333 105.691 31.52C104.678 32.88 103.998 34.0267 103.651 34.96ZM123.083 28.6L122.923 28.64C120.47 29.12 119.11 29.36 118.843 29.36C118.603 29.36 118.363 29.24 118.123 29C117.376 27.9333 117.003 27.2133 117.003 26.84C117.003 26.44 117.216 26.1867 117.643 26.08C119.963 25.5733 121.87 25.32 123.363 25.32C124.883 25.32 125.803 25.4933 126.123 25.84C127.11 26.8267 127.603 27.4267 127.603 27.64C127.603 27.8533 127.47 28.04 127.203 28.2C125.123 29.2933 122.976 30.5733 120.763 32.04C118.576 33.48 117.083 34.64 116.283 35.52C116.283 35.5467 116.35 35.56 116.483 35.56C116.643 35.56 117.23 35.4133 118.243 35.12C119.283 34.8 120.23 34.64 121.083 34.64C121.936 34.64 122.51 34.7867 122.803 35.08C124.163 36.6533 124.843 37.72 124.843 38.28C124.843 38.4933 124.736 38.6 124.523 38.6C124.39 38.6 124.15 38.48 123.803 38.24C123.483 38 123.083 37.88 122.603 37.88C122.123 37.88 121.723 37.9333 121.403 38.04C118.31 38.9467 115.83 39.4 113.963 39.4C113.67 39.4 113.256 39.1333 112.723 38.6C112.19 38.04 111.923 37.4933 111.923 36.96C111.923 36.1067 112.51 35.2267 113.683 34.32C114.856 33.3867 116.536 32.3333 118.723 31.16C121.31 29.7733 122.763 28.92 123.083 28.6Z" fill="#141517"/>
</svg>
